<mxfile host="app.diagrams.net" modified="2024-03-17T19:10:57.914Z" agent="Mozilla/5.0 (Macintosh; Intel Mac OS X 10.15; rv:123.0) Gecko/20100101 Firefox/123.0" etag="bA8XZ782RvC7lARwkUUS" version="24.0.5" type="device">
  <diagram name="Page-1" id="VcH5t235Rq8RCRa36sOE">
    <mxGraphModel dx="2098" dy="785" grid="1" gridSize="10" guides="1" tooltips="1" connect="1" arrows="1" fold="1" page="1" pageScale="1" pageWidth="850" pageHeight="1100" math="0" shadow="0">
      <root>
        <mxCell id="0" />
        <mxCell id="1" parent="0" />
        <mxCell id="BZ-ZXSuLiAjRUz0HNxvJ-3" style="edgeStyle=orthogonalEdgeStyle;rounded=0;orthogonalLoop=1;jettySize=auto;html=1;exitX=0.5;exitY=0;exitDx=0;exitDy=0;entryX=1;entryY=0.5;entryDx=0;entryDy=0;" parent="1" source="BZ-ZXSuLiAjRUz0HNxvJ-1" target="BZ-ZXSuLiAjRUz0HNxvJ-2" edge="1">
          <mxGeometry relative="1" as="geometry">
            <Array as="points">
              <mxPoint x="335" y="370" />
              <mxPoint x="335" y="370" />
            </Array>
          </mxGeometry>
        </mxCell>
        <mxCell id="BZ-ZXSuLiAjRUz0HNxvJ-1" value="UART" style="whiteSpace=wrap;html=1;aspect=fixed;" parent="1" vertex="1">
          <mxGeometry x="295" y="350" width="80" height="80" as="geometry" />
        </mxCell>
        <mxCell id="BZ-ZXSuLiAjRUz0HNxvJ-11" style="edgeStyle=orthogonalEdgeStyle;rounded=0;orthogonalLoop=1;jettySize=auto;html=1;exitX=0.5;exitY=0;exitDx=0;exitDy=0;entryX=0;entryY=0.5;entryDx=0;entryDy=0;" parent="1" source="BZ-ZXSuLiAjRUz0HNxvJ-2" target="BZ-ZXSuLiAjRUz0HNxvJ-9" edge="1">
          <mxGeometry relative="1" as="geometry" />
        </mxCell>
        <mxCell id="BZ-ZXSuLiAjRUz0HNxvJ-2" value="" style="shape=trapezoid;perimeter=trapezoidPerimeter;whiteSpace=wrap;html=1;fixedSize=1;rotation=90;" parent="1" vertex="1">
          <mxGeometry x="275" y="200" width="120" height="60" as="geometry" />
        </mxCell>
        <mxCell id="BZ-ZXSuLiAjRUz0HNxvJ-6" style="edgeStyle=orthogonalEdgeStyle;rounded=0;orthogonalLoop=1;jettySize=auto;html=1;exitX=1;exitY=0.5;exitDx=0;exitDy=0;entryX=0.25;entryY=1;entryDx=0;entryDy=0;" parent="1" source="BZ-ZXSuLiAjRUz0HNxvJ-4" target="BZ-ZXSuLiAjRUz0HNxvJ-2" edge="1">
          <mxGeometry relative="1" as="geometry" />
        </mxCell>
        <mxCell id="BZ-ZXSuLiAjRUz0HNxvJ-4" value="Mark Tuning Word" style="rounded=0;whiteSpace=wrap;html=1;" parent="1" vertex="1">
          <mxGeometry x="105" y="180" width="120" height="40" as="geometry" />
        </mxCell>
        <mxCell id="BZ-ZXSuLiAjRUz0HNxvJ-7" style="edgeStyle=orthogonalEdgeStyle;rounded=0;orthogonalLoop=1;jettySize=auto;html=1;exitX=1;exitY=0.5;exitDx=0;exitDy=0;entryX=0.75;entryY=1;entryDx=0;entryDy=0;" parent="1" source="BZ-ZXSuLiAjRUz0HNxvJ-5" target="BZ-ZXSuLiAjRUz0HNxvJ-2" edge="1">
          <mxGeometry relative="1" as="geometry" />
        </mxCell>
        <mxCell id="BZ-ZXSuLiAjRUz0HNxvJ-5" value="Space Tuning Word" style="rounded=0;whiteSpace=wrap;html=1;" parent="1" vertex="1">
          <mxGeometry x="105" y="240" width="120" height="40" as="geometry" />
        </mxCell>
        <mxCell id="BZ-ZXSuLiAjRUz0HNxvJ-13" style="edgeStyle=orthogonalEdgeStyle;rounded=0;orthogonalLoop=1;jettySize=auto;html=1;exitX=1;exitY=0.5;exitDx=0;exitDy=0;entryX=0.5;entryY=0;entryDx=0;entryDy=0;" parent="1" source="BZ-ZXSuLiAjRUz0HNxvJ-8" target="BZ-ZXSuLiAjRUz0HNxvJ-9" edge="1">
          <mxGeometry relative="1" as="geometry">
            <Array as="points">
              <mxPoint x="615" y="230" />
              <mxPoint x="615" y="150" />
              <mxPoint x="425" y="150" />
            </Array>
          </mxGeometry>
        </mxCell>
        <mxCell id="BZ-ZXSuLiAjRUz0HNxvJ-17" style="edgeStyle=orthogonalEdgeStyle;rounded=0;orthogonalLoop=1;jettySize=auto;html=1;exitX=1;exitY=0.5;exitDx=0;exitDy=0;entryX=0;entryY=0.5;entryDx=0;entryDy=0;" parent="1" source="BZ-ZXSuLiAjRUz0HNxvJ-8" target="BZ-ZXSuLiAjRUz0HNxvJ-16" edge="1">
          <mxGeometry relative="1" as="geometry" />
        </mxCell>
        <mxCell id="BZ-ZXSuLiAjRUz0HNxvJ-8" value="Phase Accumulator" style="whiteSpace=wrap;html=1;aspect=fixed;" parent="1" vertex="1">
          <mxGeometry x="485" y="190" width="80" height="80" as="geometry" />
        </mxCell>
        <mxCell id="BZ-ZXSuLiAjRUz0HNxvJ-12" style="edgeStyle=orthogonalEdgeStyle;rounded=0;orthogonalLoop=1;jettySize=auto;html=1;exitX=1;exitY=0.5;exitDx=0;exitDy=0;entryX=0;entryY=0.5;entryDx=0;entryDy=0;" parent="1" source="BZ-ZXSuLiAjRUz0HNxvJ-9" target="BZ-ZXSuLiAjRUz0HNxvJ-8" edge="1">
          <mxGeometry relative="1" as="geometry" />
        </mxCell>
        <mxCell id="BZ-ZXSuLiAjRUz0HNxvJ-9" value="+" style="ellipse;whiteSpace=wrap;html=1;aspect=fixed;" parent="1" vertex="1">
          <mxGeometry x="415" y="220" width="20" height="20" as="geometry" />
        </mxCell>
        <mxCell id="BZ-ZXSuLiAjRUz0HNxvJ-37" style="edgeStyle=orthogonalEdgeStyle;rounded=0;orthogonalLoop=1;jettySize=auto;html=1;exitX=1;exitY=0.5;exitDx=0;exitDy=0;entryX=1;entryY=0.5;entryDx=0;entryDy=0;" parent="1" source="BZ-ZXSuLiAjRUz0HNxvJ-16" target="-aF0sh1gth8SRZVDqoQN-1" edge="1">
          <mxGeometry relative="1" as="geometry">
            <Array as="points">
              <mxPoint x="785" y="230" />
              <mxPoint x="785" y="520" />
            </Array>
            <mxPoint x="745" y="530" as="targetPoint" />
          </mxGeometry>
        </mxCell>
        <mxCell id="BZ-ZXSuLiAjRUz0HNxvJ-16" value="Sine ROM" style="whiteSpace=wrap;html=1;aspect=fixed;" parent="1" vertex="1">
          <mxGeometry x="665" y="190" width="80" height="80" as="geometry" />
        </mxCell>
        <mxCell id="BZ-ZXSuLiAjRUz0HNxvJ-29" style="edgeStyle=orthogonalEdgeStyle;rounded=0;orthogonalLoop=1;jettySize=auto;html=1;exitX=0;exitY=0.5;exitDx=0;exitDy=0;entryX=1;entryY=0.5;entryDx=0;entryDy=0;" parent="1" source="BZ-ZXSuLiAjRUz0HNxvJ-22" target="BZ-ZXSuLiAjRUz0HNxvJ-26" edge="1">
          <mxGeometry relative="1" as="geometry" />
        </mxCell>
        <mxCell id="BZ-ZXSuLiAjRUz0HNxvJ-22" value="&lt;div&gt;Mark&lt;/div&gt;&lt;div&gt;Band-pass Filter&lt;/div&gt;" style="whiteSpace=wrap;html=1;aspect=fixed;" parent="1" vertex="1">
          <mxGeometry x="300" y="570" width="80" height="80" as="geometry" />
        </mxCell>
        <mxCell id="BZ-ZXSuLiAjRUz0HNxvJ-28" style="edgeStyle=orthogonalEdgeStyle;rounded=0;orthogonalLoop=1;jettySize=auto;html=1;exitX=0;exitY=0.5;exitDx=0;exitDy=0;entryX=1;entryY=0.5;entryDx=0;entryDy=0;" parent="1" source="BZ-ZXSuLiAjRUz0HNxvJ-23" target="BZ-ZXSuLiAjRUz0HNxvJ-27" edge="1">
          <mxGeometry relative="1" as="geometry" />
        </mxCell>
        <mxCell id="BZ-ZXSuLiAjRUz0HNxvJ-23" value="&lt;div&gt;Space&lt;/div&gt;&lt;div&gt;Band-pass&lt;/div&gt;&lt;div&gt;Filter&lt;br&gt;&lt;/div&gt;" style="whiteSpace=wrap;html=1;aspect=fixed;" parent="1" vertex="1">
          <mxGeometry x="300" y="690" width="80" height="80" as="geometry" />
        </mxCell>
        <mxCell id="BZ-ZXSuLiAjRUz0HNxvJ-32" style="edgeStyle=orthogonalEdgeStyle;rounded=0;orthogonalLoop=1;jettySize=auto;html=1;exitX=0;exitY=0.5;exitDx=0;exitDy=0;entryX=1;entryY=0.25;entryDx=0;entryDy=0;" parent="1" source="BZ-ZXSuLiAjRUz0HNxvJ-26" target="BZ-ZXSuLiAjRUz0HNxvJ-31" edge="1">
          <mxGeometry relative="1" as="geometry" />
        </mxCell>
        <mxCell id="BZ-ZXSuLiAjRUz0HNxvJ-26" value="Envelope Detector" style="whiteSpace=wrap;html=1;aspect=fixed;" parent="1" vertex="1">
          <mxGeometry x="180" y="570" width="80" height="80" as="geometry" />
        </mxCell>
        <mxCell id="BZ-ZXSuLiAjRUz0HNxvJ-33" style="edgeStyle=orthogonalEdgeStyle;rounded=0;orthogonalLoop=1;jettySize=auto;html=1;exitX=0;exitY=0.5;exitDx=0;exitDy=0;entryX=1;entryY=0.75;entryDx=0;entryDy=0;" parent="1" source="BZ-ZXSuLiAjRUz0HNxvJ-27" target="BZ-ZXSuLiAjRUz0HNxvJ-31" edge="1">
          <mxGeometry relative="1" as="geometry" />
        </mxCell>
        <mxCell id="BZ-ZXSuLiAjRUz0HNxvJ-27" value="Envelope Detector" style="whiteSpace=wrap;html=1;aspect=fixed;" parent="1" vertex="1">
          <mxGeometry x="180" y="690" width="80" height="80" as="geometry" />
        </mxCell>
        <mxCell id="BZ-ZXSuLiAjRUz0HNxvJ-34" style="edgeStyle=orthogonalEdgeStyle;rounded=0;orthogonalLoop=1;jettySize=auto;html=1;entryX=0.5;entryY=1;entryDx=0;entryDy=0;exitX=0.5;exitY=0;exitDx=0;exitDy=0;" parent="1" source="BZ-ZXSuLiAjRUz0HNxvJ-31" target="BZ-ZXSuLiAjRUz0HNxvJ-1" edge="1">
          <mxGeometry relative="1" as="geometry">
            <mxPoint x="-10" y="600" as="sourcePoint" />
          </mxGeometry>
        </mxCell>
        <mxCell id="BZ-ZXSuLiAjRUz0HNxvJ-31" value="Decider" style="whiteSpace=wrap;html=1;aspect=fixed;" parent="1" vertex="1">
          <mxGeometry x="20" y="620" width="80" height="80" as="geometry" />
        </mxCell>
        <mxCell id="BZ-ZXSuLiAjRUz0HNxvJ-38" value="" style="rounded=0;whiteSpace=wrap;html=1;fillColor=none;dashed=1;dashPattern=8 8;" parent="1" vertex="1">
          <mxGeometry x="85" y="120" width="680" height="180" as="geometry" />
        </mxCell>
        <mxCell id="BZ-ZXSuLiAjRUz0HNxvJ-40" style="edgeStyle=orthogonalEdgeStyle;rounded=0;orthogonalLoop=1;jettySize=auto;html=1;exitX=0.5;exitY=1;exitDx=0;exitDy=0;" parent="1" source="BZ-ZXSuLiAjRUz0HNxvJ-38" target="BZ-ZXSuLiAjRUz0HNxvJ-38" edge="1">
          <mxGeometry relative="1" as="geometry" />
        </mxCell>
        <mxCell id="BZ-ZXSuLiAjRUz0HNxvJ-41" value="Modulator" style="text;html=1;align=center;verticalAlign=middle;whiteSpace=wrap;rounded=0;" parent="1" vertex="1">
          <mxGeometry x="90" y="120" width="70" height="30" as="geometry" />
        </mxCell>
        <mxCell id="BZ-ZXSuLiAjRUz0HNxvJ-42" value="Demodulator" style="text;html=1;align=center;verticalAlign=middle;whiteSpace=wrap;rounded=0;" parent="1" vertex="1">
          <mxGeometry x="435" y="340" width="80" height="30" as="geometry" />
        </mxCell>
        <mxCell id="-aF0sh1gth8SRZVDqoQN-12" style="edgeStyle=orthogonalEdgeStyle;rounded=0;orthogonalLoop=1;jettySize=auto;html=1;exitX=0;exitY=0.5;exitDx=0;exitDy=0;entryX=1;entryY=0.5;entryDx=0;entryDy=0;" edge="1" parent="1" source="-aF0sh1gth8SRZVDqoQN-1" target="-aF0sh1gth8SRZVDqoQN-4">
          <mxGeometry relative="1" as="geometry" />
        </mxCell>
        <mxCell id="-aF0sh1gth8SRZVDqoQN-1" value="X" style="ellipse;whiteSpace=wrap;html=1;aspect=fixed;" vertex="1" parent="1">
          <mxGeometry x="720" y="510" width="20" height="20" as="geometry" />
        </mxCell>
        <mxCell id="-aF0sh1gth8SRZVDqoQN-7" style="edgeStyle=orthogonalEdgeStyle;rounded=0;orthogonalLoop=1;jettySize=auto;html=1;exitX=1;exitY=0.5;exitDx=0;exitDy=0;entryX=0.5;entryY=0;entryDx=0;entryDy=0;" edge="1" parent="1" source="-aF0sh1gth8SRZVDqoQN-2" target="-aF0sh1gth8SRZVDqoQN-1">
          <mxGeometry relative="1" as="geometry" />
        </mxCell>
        <mxCell id="-aF0sh1gth8SRZVDqoQN-2" value="Local Oscillator" style="whiteSpace=wrap;html=1;aspect=fixed;" vertex="1" parent="1">
          <mxGeometry x="600" y="360" width="80" height="80" as="geometry" />
        </mxCell>
        <mxCell id="-aF0sh1gth8SRZVDqoQN-13" style="edgeStyle=orthogonalEdgeStyle;rounded=0;orthogonalLoop=1;jettySize=auto;html=1;exitX=0;exitY=0.5;exitDx=0;exitDy=0;entryX=1;entryY=0.5;entryDx=0;entryDy=0;" edge="1" parent="1" source="-aF0sh1gth8SRZVDqoQN-4">
          <mxGeometry relative="1" as="geometry">
            <mxPoint x="560" y="520" as="targetPoint" />
          </mxGeometry>
        </mxCell>
        <mxCell id="-aF0sh1gth8SRZVDqoQN-4" value="Low-pass Filter" style="whiteSpace=wrap;html=1;aspect=fixed;" vertex="1" parent="1">
          <mxGeometry x="600" y="480" width="80" height="80" as="geometry" />
        </mxCell>
        <mxCell id="-aF0sh1gth8SRZVDqoQN-14" style="edgeStyle=orthogonalEdgeStyle;rounded=0;orthogonalLoop=1;jettySize=auto;html=1;exitX=0;exitY=0.5;exitDx=0;exitDy=0;entryX=1;entryY=0.5;entryDx=0;entryDy=0;" edge="1" parent="1" target="-aF0sh1gth8SRZVDqoQN-11">
          <mxGeometry relative="1" as="geometry">
            <mxPoint x="470" y="520" as="sourcePoint" />
            <Array as="points">
              <mxPoint x="440" y="520" />
              <mxPoint x="440" y="590" />
              <mxPoint x="720" y="590" />
              <mxPoint x="720" y="660" />
            </Array>
          </mxGeometry>
        </mxCell>
        <mxCell id="-aF0sh1gth8SRZVDqoQN-17" style="edgeStyle=orthogonalEdgeStyle;rounded=0;orthogonalLoop=1;jettySize=auto;html=1;exitX=0;exitY=0.5;exitDx=0;exitDy=0;entryX=1;entryY=0.5;entryDx=0;entryDy=0;" edge="1" parent="1" source="-aF0sh1gth8SRZVDqoQN-11" target="-aF0sh1gth8SRZVDqoQN-16">
          <mxGeometry relative="1" as="geometry" />
        </mxCell>
        <mxCell id="-aF0sh1gth8SRZVDqoQN-11" value="Low-pass Filter" style="whiteSpace=wrap;html=1;aspect=fixed;" vertex="1" parent="1">
          <mxGeometry x="600" y="620" width="80" height="80" as="geometry" />
        </mxCell>
        <mxCell id="-aF0sh1gth8SRZVDqoQN-15" value="Downsample" style="whiteSpace=wrap;html=1;aspect=fixed;" vertex="1" parent="1">
          <mxGeometry x="470" y="475" width="90" height="90" as="geometry" />
        </mxCell>
        <mxCell id="-aF0sh1gth8SRZVDqoQN-18" style="edgeStyle=orthogonalEdgeStyle;rounded=0;orthogonalLoop=1;jettySize=auto;html=1;exitX=0;exitY=0.5;exitDx=0;exitDy=0;entryX=1;entryY=0.5;entryDx=0;entryDy=0;" edge="1" parent="1" source="-aF0sh1gth8SRZVDqoQN-16" target="BZ-ZXSuLiAjRUz0HNxvJ-22">
          <mxGeometry relative="1" as="geometry" />
        </mxCell>
        <mxCell id="-aF0sh1gth8SRZVDqoQN-19" style="edgeStyle=orthogonalEdgeStyle;rounded=0;orthogonalLoop=1;jettySize=auto;html=1;exitX=0;exitY=0.5;exitDx=0;exitDy=0;entryX=1;entryY=0.5;entryDx=0;entryDy=0;" edge="1" parent="1" source="-aF0sh1gth8SRZVDqoQN-16" target="BZ-ZXSuLiAjRUz0HNxvJ-23">
          <mxGeometry relative="1" as="geometry" />
        </mxCell>
        <mxCell id="-aF0sh1gth8SRZVDqoQN-16" value="Downsample" style="whiteSpace=wrap;html=1;aspect=fixed;" vertex="1" parent="1">
          <mxGeometry x="470" y="615" width="90" height="90" as="geometry" />
        </mxCell>
        <mxCell id="-aF0sh1gth8SRZVDqoQN-20" value="" style="endArrow=none;dashed=1;html=1;dashPattern=1 3;strokeWidth=2;rounded=0;" edge="1" parent="1">
          <mxGeometry width="50" height="50" relative="1" as="geometry">
            <mxPoint y="490" as="sourcePoint" />
            <mxPoint x="430" y="490" as="targetPoint" />
          </mxGeometry>
        </mxCell>
        <mxCell id="-aF0sh1gth8SRZVDqoQN-21" value="" style="endArrow=none;dashed=1;html=1;dashPattern=1 3;strokeWidth=2;rounded=0;" edge="1" parent="1">
          <mxGeometry width="50" height="50" relative="1" as="geometry">
            <mxPoint x="430" y="340" as="sourcePoint" />
            <mxPoint x="430" y="490" as="targetPoint" />
          </mxGeometry>
        </mxCell>
        <mxCell id="-aF0sh1gth8SRZVDqoQN-22" value="" style="endArrow=none;dashed=1;html=1;dashPattern=1 3;strokeWidth=2;rounded=0;" edge="1" parent="1">
          <mxGeometry width="50" height="50" relative="1" as="geometry">
            <mxPoint x="430" y="340" as="sourcePoint" />
            <mxPoint x="760" y="340" as="targetPoint" />
          </mxGeometry>
        </mxCell>
        <mxCell id="-aF0sh1gth8SRZVDqoQN-23" value="" style="endArrow=none;dashed=1;html=1;dashPattern=1 3;strokeWidth=2;rounded=0;" edge="1" parent="1">
          <mxGeometry width="50" height="50" relative="1" as="geometry">
            <mxPoint x="760" y="800" as="sourcePoint" />
            <mxPoint x="760" y="340" as="targetPoint" />
          </mxGeometry>
        </mxCell>
        <mxCell id="-aF0sh1gth8SRZVDqoQN-24" value="" style="endArrow=none;dashed=1;html=1;dashPattern=1 3;strokeWidth=2;rounded=0;" edge="1" parent="1">
          <mxGeometry width="50" height="50" relative="1" as="geometry">
            <mxPoint x="760" y="800" as="sourcePoint" />
            <mxPoint y="800" as="targetPoint" />
          </mxGeometry>
        </mxCell>
        <mxCell id="-aF0sh1gth8SRZVDqoQN-25" value="" style="endArrow=none;dashed=1;html=1;dashPattern=1 3;strokeWidth=2;rounded=0;" edge="1" parent="1">
          <mxGeometry width="50" height="50" relative="1" as="geometry">
            <mxPoint y="490" as="sourcePoint" />
            <mxPoint y="800" as="targetPoint" />
          </mxGeometry>
        </mxCell>
        <mxCell id="-aF0sh1gth8SRZVDqoQN-27" value="Host" style="whiteSpace=wrap;html=1;aspect=fixed;" vertex="1" parent="1">
          <mxGeometry x="120" y="350" width="80" height="80" as="geometry" />
        </mxCell>
        <mxCell id="-aF0sh1gth8SRZVDqoQN-28" value="" style="shape=flexArrow;endArrow=classic;startArrow=classic;html=1;rounded=0;entryX=0;entryY=0.5;entryDx=0;entryDy=0;exitX=1;exitY=0.5;exitDx=0;exitDy=0;" edge="1" parent="1" source="-aF0sh1gth8SRZVDqoQN-27" target="BZ-ZXSuLiAjRUz0HNxvJ-1">
          <mxGeometry width="100" height="100" relative="1" as="geometry">
            <mxPoint x="180" y="490" as="sourcePoint" />
            <mxPoint x="280" y="390" as="targetPoint" />
          </mxGeometry>
        </mxCell>
      </root>
    </mxGraphModel>
  </diagram>
</mxfile>
